<?xml version="1.0" standalone="no"?>
<!DOCTYPE svg PUBLIC "-//W3C//DTD SVG 20010904//EN"
 "http://www.w3.org/TR/2001/REC-SVG-20010904/DTD/svg10.dtd">
<svg version="1.0" xmlns="http://www.w3.org/2000/svg"
 width="1912.000000pt" height="1912.000000pt" viewBox="0 0 1912.000000 1912.000000"
 preserveAspectRatio="xMidYMid meet">
<metadata>
Created by potrace 1.11, written by Peter Selinger 2001-2013
</metadata>
<g transform="translate(0.000000,1912.000000) scale(0.100000,-0.100000)"
fill="#000000" stroke="none">
<path d="M9330 19105 c-197 -33 -341 -109 -357 -188 -6 -31 -13 -37 -51 -43
-15 -3 -88 -18 -164 -34 -75 -16 -151 -32 -170 -35 -18 -3 -69 -14 -113 -25
-44 -10 -170 -39 -280 -64 -110 -25 -256 -59 -325 -76 -69 -16 -134 -32 -145
-34 -19 -4 -91 -21 -125 -31 -8 -2 -87 -22 -175 -45 -88 -23 -191 -50 -229
-61 -38 -12 -76 -22 -85 -24 -9 -2 -77 -22 -151 -43 -601 -177 -1175 -382
-1555 -557 -590 -272 -971 -543 -1202 -857 -91 -122 -163 -296 -198 -473 -3
-16 -7 -34 -9 -40 -1 -5 -6 -28 -11 -50 -4 -22 -10 -49 -12 -60 -4 -20 -37
-227 -47 -300 -9 -60 -15 -113 -21 -185 -3 -36 -7 -76 -10 -90 -8 -46 -27
-322 -40 -595 -15 -292 -21 -1231 -15 -2460 2 -440 -4 -713 -25 -1041 -14
-222 -21 -236 -191 -379 -32 -27 -61 -52 -64 -55 -3 -3 -45 -39 -95 -80 -100
-82 -212 -195 -221 -222 -3 -10 -9 -18 -14 -18 -12 0 -43 -84 -38 -104 2 -13
34 4 138 72 669 440 735 480 1025 621 181 89 189 92 340 156 61 26 124 53 140
60 194 86 326 135 745 276 214 73 732 223 910 264 196 46 249 58 270 61 14 2
35 6 47 9 12 3 93 18 180 35 87 16 169 32 183 35 14 3 45 8 70 11 25 3 52 7
60 9 8 3 33 7 55 10 22 4 69 11 105 16 36 6 81 12 100 15 19 2 49 6 65 9 17 3
50 7 75 10 51 6 94 12 315 40 39 5 105 13 180 20 33 4 71 8 85 10 14 2 75 7
135 10 61 4 124 8 140 10 17 2 75 6 130 10 55 4 120 9 145 11 267 24 1242 24
1455 -1 17 -1 75 -6 130 -9 55 -4 118 -8 140 -11 22 -2 81 -7 130 -10 113 -6
200 -14 245 -20 19 -2 58 -7 85 -10 28 -3 61 -8 75 -10 14 -3 52 -7 85 -10 33
-4 71 -8 85 -10 14 -2 81 -11 150 -20 121 -16 163 -21 225 -31 60 -9 91 -14
130 -19 22 -3 63 -10 90 -15 28 -5 111 -21 185 -35 74 -14 184 -34 244 -45
147 -27 290 -61 536 -128 113 -30 255 -68 315 -84 241 -64 853 -277 1090 -380
110 -48 125 -54 220 -93 171 -72 494 -229 576 -281 21 -13 41 -24 44 -24 8 0
205 -123 267 -167 26 -18 50 -33 52 -33 2 0 59 -37 127 -82 292 -192 409 -267
411 -260 5 26 1 42 -22 84 -41 76 -125 165 -273 288 -77 63 -174 149 -217 190
-96 92 -93 81 -115 385 -14 195 -17 455 -21 1800 -1 787 -5 1464 -7 1505 -3
41 -8 136 -11 210 -4 74 -9 160 -11 190 -2 30 -7 93 -10 140 -4 47 -8 99 -10
115 -2 17 -6 66 -10 110 -4 44 -9 87 -10 95 -1 8 -6 40 -9 70 -4 30 -9 73 -12
95 -11 89 -47 287 -70 390 -33 145 -30 131 -54 203 -104 311 -348 573 -800
858 -192 121 -550 297 -841 414 -57 23 -113 46 -124 51 -11 5 -72 27 -135 49
-63 23 -124 45 -135 50 -92 42 -817 271 -1045 331 -41 11 -89 24 -106 30 -17
5 -40 12 -50 14 -10 2 -62 16 -114 30 -52 15 -104 28 -115 30 -11 2 -76 17
-145 35 -129 32 -230 57 -265 65 -11 2 -56 13 -100 23 -287 69 -886 199 -922
201 -6 1 -14 15 -18 31 -17 79 -145 155 -310 186 -22 4 -47 9 -55 12 -38 11
-381 9 -450 -3z"/>
<path d="M6487 10784 c-1 -1 -40 -5 -87 -9 -47 -4 -87 -8 -90 -10 -3 -2 -23
-6 -45 -9 -22 -4 -58 -11 -80 -17 -22 -6 -48 -13 -59 -15 -65 -12 -231 -76
-337 -129 -442 -221 -787 -637 -919 -1108 -12 -43 -23 -88 -26 -100 -2 -12 -8
-44 -13 -72 -20 -101 -23 -133 -25 -280 -3 -158 7 -292 30 -395 3 -14 8 -38
10 -55 12 -68 88 -277 139 -382 196 -402 524 -703 963 -886 209 -86 571 -138
797 -113 45 5 159 20 165 21 3 1 23 5 45 9 282 55 585 203 809 396 136 116
304 318 383 461 78 139 160 332 178 416 2 10 11 49 20 87 31 133 43 266 40
436 -2 91 -6 181 -10 200 -7 47 -15 93 -16 105 -1 6 -14 57 -30 115 -142 543
-539 995 -1057 1204 -84 34 -157 58 -216 73 -64 16 -209 43 -261 49 -56 7
-302 13 -308 8z"/>
<path d="M12438 10785 c-2 -1 -40 -5 -85 -9 -45 -3 -88 -8 -95 -10 -7 -3 -29
-7 -48 -9 -62 -8 -235 -55 -316 -87 -297 -116 -575 -317 -754 -546 -17 -21
-37 -47 -45 -56 -18 -22 -115 -168 -115 -173 0 -2 -13 -26 -28 -52 -59 -100
-149 -337 -168 -443 -3 -14 -11 -56 -19 -95 -30 -151 -36 -437 -11 -561 2 -12
7 -39 10 -60 11 -75 28 -140 67 -259 176 -535 599 -957 1135 -1134 129 -42
224 -64 322 -76 23 -3 63 -8 90 -11 54 -6 236 -6 302 0 123 12 164 19 278 47
152 37 276 84 411 155 173 92 314 198 452 341 79 82 229 271 229 289 0 4 6 15
14 23 24 26 121 230 154 321 32 88 67 217 78 286 3 21 8 41 9 45 7 10 18 183
19 279 1 173 -21 337 -64 485 -12 39 -23 77 -25 85 -23 89 -132 313 -205 420
-106 157 -223 284 -395 429 -80 67 -286 187 -405 235 -36 15 -74 31 -85 36
-16 7 -118 39 -145 45 -34 8 -120 26 -138 30 -13 2 -31 6 -40 9 -41 12 -373
30 -384 21z"/>
<path d="M9558 6596 c-1 -2 -75 -6 -163 -10 -88 -4 -176 -8 -195 -11 -19 -2
-62 -6 -95 -10 -87 -9 -145 -15 -185 -21 -19 -3 -55 -7 -80 -10 -25 -2 -56 -7
-70 -9 -14 -2 -45 -7 -70 -10 -25 -3 -70 -10 -100 -15 -30 -5 -73 -12 -95 -15
-38 -5 -121 -19 -175 -30 -13 -3 -40 -7 -60 -10 -38 -6 -56 -9 -135 -25 -27
-5 -64 -12 -81 -15 -17 -2 -163 -32 -325 -65 -162 -34 -305 -63 -319 -66 -14
-3 -33 -7 -42 -10 -10 -3 -30 -8 -45 -10 -33 -6 -385 -86 -428 -98 -14 -4
-124 -27 -130 -28 -2 0 -206 -52 -452 -114 -246 -63 -459 -117 -472 -120 -14
-3 -57 -14 -97 -25 -40 -11 -81 -22 -91 -23 -35 -7 -583 -158 -899 -248 l-322
-91 0 -1375 0 -1374 36 -62 c70 -119 204 -306 331 -461 674 -818 1554 -1457
2516 -1825 139 -53 447 -158 487 -165 10 -2 22 -6 26 -9 5 -3 20 -7 34 -10 14
-2 58 -13 99 -25 76 -21 316 -76 379 -86 19 -3 42 -8 50 -10 8 -2 32 -6 52 -9
21 -3 75 -12 120 -20 46 -8 115 -18 153 -21 39 -4 72 -9 75 -10 3 -2 43 -6 90
-10 47 -4 93 -9 103 -11 91 -17 810 -26 1017 -11 103 6 206 16 256 22 17 3 57
7 90 10 32 3 84 10 114 15 30 5 73 12 95 15 43 7 69 11 125 20 19 3 50 8 69
11 19 2 37 7 41 9 4 3 25 7 46 11 22 3 55 9 74 14 19 5 46 11 60 13 14 3 43
10 65 15 22 6 51 13 65 16 14 3 50 12 80 20 30 9 87 24 125 35 82 22 261 78
290 90 11 5 79 30 150 56 72 26 146 54 165 62 19 8 44 19 55 23 249 105 520
243 755 382 94 55 213 130 220 138 3 3 46 32 95 64 95 63 305 217 390 288 256
211 293 245 510 463 191 190 296 307 446 497 28 35 56 70 63 79 27 33 162 229
204 296 32 52 42 78 43 113 3 163 0 2712 -2 2715 -4 3 -276 84 -354 105 -16 4
-113 31 -215 60 -183 51 -240 67 -272 75 -9 2 -108 28 -220 59 -202 54 -279
75 -308 82 -13 3 -262 67 -310 80 -8 2 -62 15 -120 30 -58 14 -112 27 -120 29
-75 19 -510 126 -525 129 -11 2 -82 18 -158 36 -77 17 -151 34 -165 36 -15 3
-40 9 -57 14 -16 5 -57 14 -90 21 -33 7 -64 14 -70 15 -43 10 -181 39 -285 60
-69 14 -132 27 -140 29 -8 1 -89 17 -180 34 -167 32 -195 37 -240 46 -14 3
-65 12 -115 20 -116 19 -146 24 -170 29 -11 3 -47 8 -80 11 -33 4 -67 8 -75
10 -8 2 -37 7 -65 10 -27 4 -57 8 -65 10 -8 2 -46 7 -85 11 -38 3 -78 8 -89
10 -10 2 -51 6 -90 9 -39 4 -87 8 -106 11 -19 2 -102 6 -185 9 -82 4 -155 8
-162 10 -6 2 -13 2 -15 1z"/>
</g>
</svg>
